<!-- Generated by IcoMoon.io -->
<svg version="1.1" xmlns="http://www.w3.org/2000/svg" width="16" height="16" viewBox="0 0 768 768">
<title>github</title>
<g id="icomoon-ignore">
</g>
<path fill="#000" d="M384 640.5c141 0 256.5-115.5 256.5-256.5s-115.5-256.5-256.5-256.5-256.5 115.5-256.5 256.5 115.5 256.5 256.5 256.5zM384 64.5c177 0 319.5 142.5 319.5 319.5s-142.5 319.5-319.5 319.5-319.5-142.5-319.5-319.5 142.5-319.5 319.5-319.5zM379.5 292.5c-46.142 0-60 40.843-60 87v9c0 46.154 13.881 87 60 87 28.168 0 52.5-17.194 52.5-45h57c0 29.282-15.854 51.303-33 66-19.34 16.577-41.857 27-76.5 27-81.877 0-123-54.11-123-135v-9c0-38.784 10.89-74.161 30-96 19.798-22.627 51.513-40.5 93-40.5 33.206 0 60.942 11.442 78 28.5 16.504 16.504 31.5 41.981 31.5 73.5h-57c0-7.5-1.5-13.5-4.5-19.5s-6-13.5-10.5-18c-8.126-8.126-22.014-15-37.5-15z"></path>
</svg>
