<!-- Generated by IcoMoon.io -->
<svg version="1.1" xmlns="http://www.w3.org/2000/svg" width="16" height="16" viewBox="0 0 512 512">
<title>github</title>
<g id="icomoon-ignore">
</g>
<path d="M391.994 376.006c-32.052 0-62.186-12.48-84.85-35.144l-51.144-51.141-51.138 51.135c-22.666 22.668-52.8 35.15-84.853 35.15-32.059 0-62.195-12.482-84.861-35.15s-35.148-52.802-35.148-84.856 12.482-62.19 35.148-84.857c22.667-22.666 52.804-35.148 84.857-35.148 32.054 0 62.19 12.482 84.856 35.148l51.139 51.138 51.138-51.138c22.666-22.666 52.802-35.149 84.856-35.149 32.056 0 62.192 12.483 84.855 35.149 22.669 22.667 35.151 52.803 35.151 84.857 0 32.056-12.482 62.191-35.15 84.855-22.663 22.668-52.799 35.151-84.856 35.151zM340.86 307.144c13.661 13.655 31.82 21.177 51.134 21.176 19.317 0 37.479-7.522 51.138-21.181 13.658-13.661 21.182-31.822 21.182-51.139s-7.523-37.478-21.182-51.137c-13.66-13.659-31.82-21.182-51.138-21.182-19.316 0-37.478 7.522-51.139 21.182l-51.134 51.137 51.139 51.144zM120.006 183.681c-19.317 0-37.478 7.522-51.137 21.182-13.66 13.659-21.182 31.82-21.182 51.137 0 19.316 7.522 37.477 21.182 51.138 13.66 13.658 31.821 21.182 51.137 21.182 19.317 0 37.478-7.522 51.136-21.181l51.138-51.139-51.138-51.137c-13.659-13.66-31.82-21.183-51.136-21.182v0z"></path>
</svg>
