<svg height="24pt" viewBox="0 -40 464 464" width="24pt" xmlns="http://www.w3.org/2000/svg"><path d="m0 224v80h32v80h144v-80h32v-80zm0 0" fill="#195c85"/><path d="m256 224v80h32v80h144v-80h32v-80zm0 0" fill="#195c85"/><path d="m320 32c0 17.671875-14.328125 32-32 32s-32-14.328125-32-32 14.328125-32 32-32 32 14.328125 32 32zm0 0" fill="#5a6470"/><path d="m80 192h48v40.742188h-48zm0 0" fill="#f7c161"/><path d="m336 192h48v40.742188h-48zm0 0" fill="#f7c161"/><g fill="#ffd782"><path d="m0 304h32v80h-32zm0 0"/><path d="m176 304h32v80h-32zm0 0"/><path d="m40.246094 16h127.507812c13.390625 0 24.246094 10.855469 24.246094 24.246094v127.753906c0 13.253906-10.746094 24-24 24h-128c-13.253906 0-24-10.746094-24-24v-127.753906c0-13.390625 10.855469-24.246094 24.246094-24.246094zm0 0"/><path d="m256 304h32v80h-32zm0 0"/><path d="m432 304h32v80h-32zm0 0"/><path d="m448 93.679688v74.320312c0 13.253906-10.746094 24-24 24h-128c-13.253906 0-24-10.746094-24-24v-74.320312c-.015625-9.523438 1.75-18.964844 5.199219-27.839844v-.078125c11.542969-29.984375 40.355469-49.765625 72.480469-49.761719h20.640624c32.925782 0 62.269532 20.78125 73.199219 51.839844h.082031c2.933594 8.296875 4.421876 17.039062 4.398438 25.839844zm0 0"/><path d="m64 224h80c0 17.671875-14.328125 32-32 32h-16c-17.671875 0-32-14.328125-32-32zm0 0"/></g><path d="m48 104h16v16h-16zm0 0" fill="#143441"/><path d="m144 104h16v16h-16zm0 0" fill="#143441"/><path d="m129.457031 141.28125c-2.695312-11.382812-14.042969-18.480469-25.457031-15.929688-11.414062-2.550781-22.761719 4.546876-25.457031 15.929688 0 0-7.269531 15.085938-14.542969 15.085938 0 0 29.601562 11.90625 40-7.382813 10.398438 19.289063 40 7.382813 40 7.382813-7.273438 0-14.542969-15.085938-14.542969-15.085938zm0 0" fill="#7d8d9c"/><path d="m320 224h80c0 17.671875-14.328125 32-32 32h-16c-17.671875 0-32-14.328125-32-32zm0 0" fill="#ffd782"/><path d="m304 104h16v16h-16zm0 0" fill="#143441"/><path d="m400 104h16v16h-16zm0 0" fill="#143441"/><path d="m443.519531 67.839844c-23.339843 10.402344-50.734375.695312-62.320312-22.078125-10.535157 17.167969-27.800781 29.117187-47.578125 32.9375-19.777344 3.820312-40.25-.847657-56.421875-12.859375v-.078125c11.542969-29.984375 40.355469-49.765625 72.480469-49.761719h20.640624c32.925782 0 62.269532 20.78125 73.199219 51.839844zm0 0" fill="#394d5c"/><path d="m352 104h16v32h-16zm0 0" fill="#143441"/><path d="m360.800781 167.9375c-10.613281-.066406-20.945312-3.394531-29.601562-9.539062l9.601562-12.796876c11.472657 8.246094 26.925781 8.246094 38.398438 0l9.601562 12.796876c-8.027343 6.183593-17.871093 9.539062-28 9.539062zm0 0" fill="#143441"/><path d="m40.246094 16h127.507812c13.390625 0 24.246094 10.855469 24.246094 24.246094v23.753906h-176v-23.753906c0-13.390625 10.855469-24.246094 24.246094-24.246094zm0 0" fill="#7d8d9c"/><path d="m112 256h-16v104h32v-16h-16v-16h16v-16h-16v-16h16v-16h-16zm0 0" fill="#4ba9c6"/><path d="m384 296v-16h-16v-24h-16v96h32v-16h-16v-8h16v-16h-16v-16zm0 0" fill="#4ba9c6"/></svg>