<?xml version="1.0" encoding="iso-8859-1"?>
<!-- Generator: Adobe Illustrator 19.0.0, SVG Export Plug-In . SVG Version: 6.00 Build 0)  -->
<svg xmlns="http://www.w3.org/2000/svg" xmlns:xlink="http://www.w3.org/1999/xlink" version="1.1" id="Capa_1" x="0px" y="0px" viewBox="0 0 512 512" style="enable-background:new 0 0 512 512;" xml:space="preserve" width="32" height="32">
<g>
	<path style="fill:#FF4128;" d="M347.001,261.25v196.592l-24.87,8.29c-3.93,1.31-6.053,5.557-4.744,9.487   c1.31,3.93,5.559,6.054,9.487,4.744l29.998-10c3.063-1.021,5.128-3.887,5.128-7.115V261.25H347.001z"/>
	<path style="fill:#CF301B;" d="M407.001,261.25v196.592l-24.87,8.29c-3.93,1.31-6.053,5.557-4.744,9.487   c1.31,3.93,5.559,6.054,9.487,4.744l29.998-10c3.063-1.021,5.128-3.887,5.128-7.115V261.25H407.001z"/>
	<path style="fill:#A45E43;" d="M105,261.25v196.592l24.87,8.29c3.93,1.31,6.053,5.557,4.744,9.487   c-1.31,3.93-5.559,6.054-9.487,4.744l-29.998-10c-3.063-1.021-5.128-3.887-5.128-7.115V261.25H105z"/>
	<path style="fill:#85453D;" d="M165,261.25v196.592l24.87,8.29c3.93,1.31,6.053,5.557,4.744,9.487   c-1.31,3.93-5.559,6.054-9.487,4.744l-29.998-10c-3.063-1.021-5.128-3.887-5.128-7.115V261.25H165z"/>
	<path style="fill:#FFD9D4;" d="M226,178.781h-15c-4.142,0-7.5,3.358-7.5,7.5s3.358,7.5,7.5,7.5h15c4.136,0,7.5,3.364,7.5,7.5   s-3.364,7.5-7.5,7.5h-98.5v15H226c12.407,0,22.5-10.093,22.5-22.5S238.407,178.781,226,178.781z"/>
	<path style="fill:#FFF0D3;" d="M82.5,208.781c-37.22,0-67.5-30.28-67.5-67.5c0-4.142-3.358-7.5-7.5-7.5s-7.5,3.358-7.5,7.5   c0,45.491,37.009,82.5,82.5,82.5h45v-15H82.5z"/>
	<path style="fill:#B9D171;" d="M339.496,208.75L286,208.781c-4.136,0-7.5-3.364-7.5-7.5s3.364-7.5,7.5-7.5h15   c4.142,0,7.5-3.358,7.5-7.5s-3.358-7.5-7.5-7.5h-15c-12.407,0-22.5,10.093-22.5,22.5s10.093,22.5,22.504,22.5l53.496-0.031h45.001   v-15H339.496z"/>
	<path style="fill:#9DB55F;" d="M504.5,133.75c-4.142,0-7.5,3.358-7.5,7.5c0,37.22-30.28,67.5-67.5,67.5h-44.999v15H429.5   c45.491,0,82.5-37.009,82.5-82.5C512,137.108,508.642,133.75,504.5,133.75z"/>
	<path style="fill:#CF301B;" d="M384.5,246.25v90c24.853,0,45-20.147,45-45L384.5,246.25z"/>
	<path style="fill:#FF4128;" d="M399.5,291.25l-15-45l-45,45c0,24.853,20.147,45,45,45C392.784,336.25,399.5,316.103,399.5,291.25z"/>
	<path style="fill:#9DB55F;" d="M409.5,196.25h-30l20,95h30v-75C429.5,205.204,420.546,196.25,409.5,196.25z"/>
	<path style="fill:#B9D171;" d="M379.5,196.25h-20c-11.046,0-20,8.954-20,20v75h60v-75C399.5,205.204,390.546,196.25,379.5,196.25z"/>
	<path style="fill:#CF301B;" d="M271.383,91.19c-6.175,0-11.693,2.784-15.383,7.158l-11.833,28.921L256,156.19   c0,0,35.5-18.909,35.5-44.909C291.5,100.185,282.493,91.19,271.383,91.19z"/>
	<path style="fill:#FF4128;" d="M240.617,91.19c-11.11,0-20.117,8.995-20.117,20.091c0,26.001,35.5,44.909,35.5,44.909V98.348   C252.31,93.974,246.791,91.19,240.617,91.19z"/>
	<path style="fill:#4F4F4F;" d="M112.5,261.281l30,72.429v26.604h30c0-8.284,0-69.033,0-69.033L112.5,261.281z"/>
	<path style="fill:#696969;" d="M82.5,291.281c0,0,0,60.749,0,69.033h30V333.71c4.693,1.659,9.739,2.571,15,2.571   c5.261,0,10.307-0.912,15-2.571v-72.429L82.5,291.281z"/>
	<path style="fill:#FFD9D4;" d="M152.5,196.281h-30l20,95h30v-75C172.5,205.235,163.546,196.281,152.5,196.281z"/>
	<path style="fill:#FFF0D3;" d="M122.5,196.281h-20c-11.046,0-20,8.954-20,20v75h60v-75   C142.5,205.235,133.546,196.281,122.5,196.281z"/>
	<path style="fill:#85453D;" d="M127.5,76.281v90c24.853,0,45-20.147,45-45S152.353,76.281,127.5,76.281z"/>
	<path style="fill:#A45E43;" d="M142.5,121.281c0-24.853-6.716-45-15-45c-24.853,0-45,20.147-45,45s20.147,45,45,45   C135.784,166.281,142.5,146.134,142.5,121.281z"/>
	<path style="fill:#B9D171;" d="M384.501,31.25l-45,90l90,0v-45C429.501,51.397,409.354,31.25,384.501,31.25z"/>
	<path style="fill:#D5E3AA;" d="M339.501,76.25v45h45v-90C359.649,31.25,339.501,51.397,339.501,76.25z"/>
	<path style="fill:#E18F4E;" d="M412.785,86.258h-28.283v79.992c24.853,0,45-20.147,45-45   C429.501,107.115,422.979,94.508,412.785,86.258z"/>
	<path style="fill:#FFA754;" d="M398.202,102.936l-41.984-16.678c-10.194,8.25-16.717,20.856-16.717,34.992   c0,24.853,20.147,45,45,45c8.284,0,15-20.147,15-45C399.501,114.726,399.035,108.532,398.202,102.936z"/>
	<path style="fill:#40211D;" d="M384.501,76.25v26.686h13.701c6.754-3.473,12.02-9.436,14.583-16.678   C405.056,80.003,395.219,76.25,384.501,76.25z"/>
	<path style="fill:#60312C;" d="M384.501,76.25c-10.718,0-20.554,3.753-28.283,10.008c4.121,11.646,15.225,19.992,28.283,19.992   c4.938,0,9.593-1.2,13.701-3.314C395.864,87.214,390.611,76.25,384.501,76.25z"/>
</g>















</svg>
