<?xml version="1.0" encoding="utf-8"?><!DOCTYPE svg PUBLIC "-//W3C//DTD SVG 1.1//EN" "http://www.w3.org/Graphics/SVG/1.1/DTD/svg11.dtd"><svg version="1.1" xmlns="http://www.w3.org/2000/svg" xmlns:xlink="http://www.w3.org/1999/xlink" width="32" height="32" viewBox="0 0 32 32" data-tags="line"><g fill="#444" transform="scale(0.03125 0.03125)"><path fill="rgb(0, 195, 0)" d="M826.24 420.821c14.891 0 26.88 12.16 26.88 26.923 0 14.72-11.989 26.88-26.88 26.88h-74.88v48h74.88c14.891 0 26.88 12.075 26.88 26.88 0 14.677-11.989 26.837-26.88 26.837h-101.803c-14.72 0-26.752-12.16-26.752-26.837v-203.563c0-14.72 12.032-26.88 26.88-26.88h101.803c14.763 0 26.752 12.16 26.752 26.88 0 14.891-11.989 26.88-26.88 26.88h-74.88v48h74.88zM661.76 549.504c0 11.52-7.424 21.76-18.432 25.429-2.731 0.896-5.675 1.323-8.491 1.323-9.003 0-16.683-3.84-21.76-10.667l-104.235-141.525v125.44c0 14.677-11.904 26.837-26.923 26.837-14.763 0-26.709-12.16-26.709-26.837v-203.563c0-11.52 7.381-21.76 18.347-25.387 2.56-0.981 5.803-1.408 8.277-1.408 8.32 0 16 4.437 21.12 10.837l105.045 142.080v-126.123c0-14.72 12.032-26.88 26.88-26.88 14.72 0 26.88 12.16 26.88 26.88v203.563zM416.811 549.504c0 14.677-12.032 26.837-26.923 26.837-14.72 0-26.752-12.16-26.752-26.837v-203.563c0-14.72 12.032-26.88 26.88-26.88 14.763 0 26.795 12.16 26.795 26.88v203.563zM311.595 576.341h-101.803c-14.72 0-26.88-12.16-26.88-26.837v-203.563c0-14.72 12.16-26.88 26.88-26.88 14.848 0 26.88 12.16 26.88 26.88v176.683h74.923c14.848 0 26.837 12.075 26.837 26.88 0 14.677-12.032 26.837-26.837 26.837zM1024 440.064c0-229.163-229.76-415.659-512-415.659s-512 186.496-512 415.659c0 205.269 182.187 377.259 428.16 409.941 16.683 3.499 39.381 11.008 45.141 25.173 5.12 12.843 3.371 32.683 1.621 46.080l-6.997 43.52c-1.92 12.843-10.24 50.603 44.757 27.52 55.083-22.997 295.083-173.995 402.603-297.6 73.557-80.597 108.715-163.157 108.715-254.635z" /></g></svg>