<?xml version="1.0" encoding="iso-8859-1"?>
<!-- Generator: Adobe Illustrator 19.0.0, SVG Export Plug-In . SVG Version: 6.00 Build 0)  -->
<svg xmlns="http://www.w3.org/2000/svg" xmlns:xlink="http://www.w3.org/1999/xlink" version="1.1" id="Capa_1" x="0px" y="0px" viewBox="0 0 512 512" style="enable-background:new 0 0 512 512;" xml:space="preserve" width="32" height="32">
<g>
	<path style="fill:#FFA754;" d="M347.001,258.735v196.592l-24.87,8.29c-3.93,1.31-6.053,5.557-4.744,9.487   c1.31,3.93,5.559,6.054,9.487,4.744l29.998-10c3.063-1.021,5.128-3.887,5.128-7.115V258.735H347.001z"/>
	<path style="fill:#FF8646;" d="M407.001,258.735v196.592l-24.87,8.29c-3.93,1.31-6.053,5.557-4.744,9.487   c1.31,3.93,5.559,6.054,9.487,4.744l29.998-10c3.063-1.021,5.128-3.887,5.128-7.115V258.735H407.001z"/>
	<path style="fill:#FF6753;" d="M105,258.735v196.592l24.87,8.29c3.93,1.31,6.053,5.557,4.744,9.487   c-1.31,3.93-5.559,6.054-9.487,4.744l-29.998-10c-3.063-1.021-5.128-3.887-5.128-7.115V258.735H105z"/>
	<path style="fill:#FF4128;" d="M165,258.735v196.592l24.87,8.29c3.93,1.31,6.053,5.557,4.744,9.487   c-1.31,3.93-5.559,6.054-9.487,4.744l-29.998-10c-3.063-1.021-5.128-3.887-5.128-7.115V258.735H165z"/>
	<path style="fill:#FFA754;" d="M226,176.266h-15c-4.142,0-7.5,3.358-7.5,7.5s3.358,7.5,7.5,7.5h15c4.136,0,7.5,3.364,7.5,7.5   s-3.364,7.5-7.5,7.5h-98.5v15H226c12.407,0,22.5-10.093,22.5-22.5S238.407,176.266,226,176.266z"/>
	<path style="fill:#FFCB63;" d="M82.5,206.266c-37.22,0-67.5-30.28-67.5-67.5c0-4.142-3.358-7.5-7.5-7.5s-7.5,3.358-7.5,7.5   c0,45.491,37.009,82.5,82.5,82.5h45v-15H82.5z"/>
	<path style="fill:#FF8646;" d="M339.496,206.235L286,206.266c-4.136,0-7.5-3.364-7.5-7.5s3.364-7.5,7.5-7.5h15   c4.142,0,7.5-3.358,7.5-7.5s-3.358-7.5-7.5-7.5h-15c-12.407,0-22.5,10.093-22.5,22.5s10.093,22.5,22.504,22.5l53.496-0.031h45.001   v-15H339.496z"/>
	<path style="fill:#FF6753;" d="M504.5,131.235c-4.142,0-7.5,3.358-7.5,7.5c0,37.22-30.28,67.5-67.5,67.5h-44.999v15H429.5   c45.491,0,82.5-37.009,82.5-82.5C512,134.593,508.642,131.235,504.5,131.235z"/>
	<path style="fill:#FF6753;" d="M409.5,193.735h-30v120h50v-100C429.5,202.69,420.546,193.735,409.5,193.735z"/>
	<path style="fill:#FF8646;" d="M379.5,193.735h-20c-11.046,0-20,8.954-20,20v60l60,40v-100   C399.5,202.69,390.546,193.735,379.5,193.735z"/>
	<path style="fill:#FF1B7C;" d="M429.5,273.735h-30l15,75h30V313.4C444.5,298.19,438.829,284.311,429.5,273.735z"/>
	<path style="fill:#FF4996;" d="M399.5,273.735h-60v75h75V313.4C414.5,298.19,408.829,284.311,399.5,273.735z"/>
	<path style="fill:#FFD9D4;" d="M411.501,82.735h-27v81c24.85,0,45-20.15,45-45C429.501,104.015,422.431,90.935,411.501,82.735z"/>
	<path style="fill:#FFF0D3;" d="M397.701,97.375c1.15,6.36,1.8,13.63,1.8,21.36c0,24.85-6.72,45-15,45c-24.85,0-45-20.15-45-45   L397.701,97.375z"/>
	<path style="fill:#FF8646;" d="M411.501,82.735c-4.04,5.38-8.67,10.29-13.8,14.64l-13.2-23.64   C394.621,73.735,403.981,77.085,411.501,82.735z"/>
	<path style="fill:#FFA754;" d="M339.501,118.735c0-24.85,20.15-45,45-45c5.7,0,10.67,9.56,13.2,23.64   C382.011,110.695,361.691,118.735,339.501,118.735z"/>
	<path style="fill:#FF4128;" d="M127.5,243.766v90c24.853,0,45-20.147,45-45L127.5,243.766z"/>
	<path style="fill:#FF6753;" d="M142.5,288.766l-15-45l-45,45c0,24.853,20.147,45,45,45   C135.784,333.766,142.5,313.619,142.5,288.766z"/>
	<path style="fill:#FFA754;" d="M152.5,193.766h-30l20,95h30v-75C172.5,202.721,163.546,193.766,152.5,193.766z"/>
	<path style="fill:#FFCB63;" d="M122.5,193.766h-20c-11.046,0-20,8.954-20,20v75h60v-75   C142.5,202.721,133.546,193.766,122.5,193.766z"/>
	<path style="fill:#CF301B;" d="M271.383,88.675c-6.175,0-11.693,2.784-15.383,7.158l-11.833,28.921L256,153.675   c0,0,35.5-18.909,35.5-44.909C291.5,97.67,282.493,88.675,271.383,88.675z"/>
	<path style="fill:#FF4128;" d="M240.617,88.675c-11.11,0-20.117,8.995-20.117,20.091c0,26.001,35.5,44.909,35.5,44.909V95.833   C252.31,91.46,246.791,88.675,240.617,88.675z"/>
	<path style="fill:#40211D;" d="M172.5,66.67c0.001-2.016-0.386-4.066-1.206-6.045c-2.703-6.527-9.275-10.275-15.958-9.696   c0.579-6.682-3.17-13.254-9.696-15.958c-6.526-2.703-13.824-0.707-18.14,4.427c-4.316-5.135-11.614-7.131-18.14-4.427   c-6.526,2.703-10.275,9.275-9.696,15.958c-6.683-0.579-13.254,3.17-15.958,9.696c-0.82,1.979-1.207,4.029-1.206,6.045   c0.002,4.633,0,52.096,0,52.096h90C172.5,118.766,172.498,71.303,172.5,66.67z"/>
	<path style="fill:#60312C;" d="M127.5,73.766v90c24.853,0,45-20.147,45-45S152.353,73.766,127.5,73.766z"/>
	<path style="fill:#85453D;" d="M142.5,118.766c0-24.853-6.716-45-15-45c-24.853,0-45,20.147-45,45s20.147,45,45,45   C135.784,163.766,142.5,143.619,142.5,118.766z"/>
</g>















</svg>
