<?xml version="1.0" encoding="utf-8"?><!DOCTYPE svg PUBLIC "-//W3C//DTD SVG 1.1//EN" "http://www.w3.org/Graphics/SVG/1.1/DTD/svg11.dtd"><svg version="1.1" xmlns="http://www.w3.org/2000/svg" xmlns:xlink="http://www.w3.org/1999/xlink" width="32" height="32" viewBox="0 0 32 32" data-tags="skype"><g fill="#444" transform="scale(0.03125 0.03125)"><path fill="rgb(0, 175, 240)" d="M514.944 805.291c-171.648 0-248.32-84.437-248.32-147.797 0-32.64 23.936-55.296 56.875-55.296 73.515 0 54.315 105.685 191.445 105.685 70.016 0 108.8-38.187 108.8-77.269 0-23.509-11.477-49.493-57.771-60.971l-152.576-38.187c-122.88-30.891-145.195-97.536-145.195-160.043 0-130.005 122.069-178.816 236.757-178.816 105.429 0 230.101 58.581 230.101 136.491 0 33.451-29.355 52.907-61.995 52.907-62.677 0-51.115-86.912-177.664-86.912-62.677 0-97.792 28.331-97.792 68.992s49.195 53.675 92.032 63.445l112.512 25.045c123.349 27.691 154.624 100.096 154.624 168.277 0 105.643-81.152 184.491-244.139 184.491zM985.557 597.035l-1.237 5.76-1.877-10.24c0.64 1.92 1.877 3.157 2.517 5.12 5.12-28.8 7.723-58.155 7.723-87.552 0-65.237-12.843-128.512-38.315-188.587-24.277-57.515-59.52-109.312-103.552-153.429-44.757-44.075-95.872-79.189-153.387-103.509-56.235-26.923-119.509-39.68-184.661-39.68-30.72 0-61.611 2.987-91.435 8.704l5.077 2.56-10.197-1.408 5.077-1.067c-41.131-22.016-87.253-33.707-134.101-33.707-76.331 0-148.053 29.781-202.069 83.925-54.016 54.101-83.755 126.123-83.755 202.624 0 48.768 12.459 96.64 36.011 139.008l0.853-5.291 1.749 10.197-2.56-4.907c-4.864 27.52-7.339 55.424-7.339 83.413 0 65.28 12.8 128.725 37.717 188.416 24.235 58.112 58.795 109.909 103.552 153.984 44.117 44.8 95.872 79.232 153.387 104.192 59.477 25.6 122.752 38.315 187.904 38.315 28.117 0 56.917-2.56 84.352-7.637l-5.077-2.645 10.24 1.963-5.76 1.28c42.752 24.277 90.709 37.163 140.544 37.163 76.075 0 147.584-29.44 201.941-83.755 53.717-53.717 83.712-125.909 83.712-202.624 0-48.555-12.757-96.512-36.395-139.349z" /></g></svg>