<!-- Generated by IcoMoon.io -->
<svg version="1.1" xmlns="http://www.w3.org/2000/svg" width="32" height="32" viewBox="0 0 1024 1024">
<title></title>
<g id="icomoon-ignore">
</g>
<path d="M515.84 559.744c-39.936 82.432-94.592 194.048-121.728 244.395-26.283 45.824-48.085 39.723-65.365 1.237-59.989-141.696-183.168-390.144-241.109-529.451-10.709-25.643-18.816-42.112-26.411-48.597-7.723-6.4-23.637-10.24-47.872-11.563-8.96-1.024-13.355-3.2-13.355-6.784v-19.413l2.219-1.92c39.424-0.213 230.443 0 230.443 0l2.176 1.92v18.517c0 5.077-3.2 7.509-9.6 7.509l-24.064 1.323c-20.693 1.237-31.019 6.997-31.019 18.603 0 5.76 2.261 14.080 7.083 25.643 46.165 112.896 205.568 448.896 205.568 448.896l5.803 1.963 102.869-205.227-20.565-45.525-70.741-139.264s-13.568-27.904-18.261-37.205c-31.061-61.568-30.379-64.768-61.739-68.992-8.832-0.981-13.355-2.133-13.355-6.357v-19.968l2.56-1.92h183.125l4.821 1.579v19.243c0 4.48-3.243 6.4-9.685 6.4l-13.141 2.005c-33.792 2.603-28.203 16.256-5.803 60.672l67.499 138.752 75.008-149.504c12.501-27.307 9.941-34.176 4.736-40.405-2.987-3.584-13.013-9.387-34.645-10.24l-8.576-0.896c-2.219 0-4.181-0.64-6.187-2.176-1.92-1.323-2.859-3.243-2.859-5.504v-18.219l2.603-1.92c53.205-0.341 172.501 0 172.501 0l2.517 1.92v18.603c0 5.163-2.517 7.595-8.235 7.595-27.563 1.28-33.365 4.053-43.648 18.731-5.12 7.936-16 25.131-27.563 44.331l-98.176 182.315-2.773 5.76 119.125 243.712 7.253 2.048 187.563-445.355c6.571-18.005 5.504-30.805-2.731-38.187-8.405-7.339-14.763-11.648-36.565-12.587l-17.92-0.683c-2.603 0-4.48-0.597-6.485-1.92-1.835-1.237-3.072-3.2-3.072-5.077v-18.603l2.517-1.92h211.669l1.749 1.92v18.645c0 5.077-3.157 7.68-8.917 7.68-27.648 1.28-48.085 7.68-61.568 17.963-13.397 10.88-23.765 26.283-31.403 45.525 0 0-172.501 395.008-231.509 526.464-22.4 42.965-44.928 39.125-64.128-1.323-24.363-49.963-75.648-161.536-112.896-243.627l2.261-1.536z"></path>
</svg>
